<?xml version='1.0' encoding='utf-8'?>
<mxfile host="app.diagrams.net" modified="2025-08-17T02:47:20.441862Z" agent="python/3" version="22.0.0" type="device"><diagram id="MapaCap1" name="Capítulo 1 — Clean Code"><mxGraphModel dx="1222" dy="686" grid="1" gridSize="10" guides="1" tooltips="1" connect="1" arrows="1" fold="1" page="1" pageScale="1" pageWidth="1600" pageHeight="1000" math="0" shadow="0"><root><mxCell id="0" /><mxCell id="1" parent="0" /><mxCell id="T" value="Capítulo 1 — Clean Code (Mapa conceptual)" vertex="1" parent="1" style="rounded=0;whiteSpace=wrap;html=1;fontSize=24;fontStyle=1;align=center;strokeWidth=2;"><mxGeometry x="120" y="10" width="1100" height="60" as="geometry" /></mxCell><mxCell id="A" value="Clean Code (Capítulo 1)" vertex="1" parent="1" style="rounded=1;whiteSpace=wrap;html=1;fontSize=14;"><mxGeometry x="560" y="100" width="240" height="60" as="geometry" /></mxCell><mxCell id="B" value="Habrá código" vertex="1" parent="1" style="rounded=1;whiteSpace=wrap;html=1;fontSize=14;"><mxGeometry x="100" y="220" width="180" height="60" as="geometry" /></mxCell><mxCell id="C" value="Código desordenado" vertex="1" parent="1" style="rounded=1;whiteSpace=wrap;html=1;fontSize=14;"><mxGeometry x="360" y="220" width="220" height="60" as="geometry" /></mxCell><mxCell id="E" value="Profesionalismo" vertex="1" parent="1" style="rounded=1;whiteSpace=wrap;html=1;fontSize=14;"><mxGeometry x="640" y="220" width="180" height="60" as="geometry" /></mxCell><mxCell id="F" value="Qué es código limpio" vertex="1" parent="1" style="rounded=1;whiteSpace=wrap;html=1;fontSize=14;"><mxGeometry x="920" y="220" width="220" height="60" as="geometry" /></mxCell><mxCell id="H" value="Somos autores" vertex="1" parent="1" style="rounded=1;whiteSpace=wrap;html=1;fontSize=14;"><mxGeometry x="260" y="340" width="200" height="60" as="geometry" /></mxCell><mxCell id="G" value="Mejora continua" vertex="1" parent="1" style="rounded=1;whiteSpace=wrap;html=1;fontSize=14;"><mxGeometry x="640" y="340" width="200" height="60" as="geometry" /></mxCell><mxCell id="I" value="Principios y práctica" vertex="1" parent="1" style="rounded=1;whiteSpace=wrap;html=1;fontSize=14;"><mxGeometry x="980" y="340" width="220" height="60" as="geometry" /></mxCell><mxCell id="D" value="Costo de la desorganización" vertex="1" parent="1" style="rounded=1;whiteSpace=wrap;html=1;fontSize=14;"><mxGeometry x="360" y="340" width="260" height="60" as="geometry" /></mxCell><mxCell id="J" value="Conclusión" vertex="1" parent="1" style="rounded=1;whiteSpace=wrap;html=1;fontSize=14;"><mxGeometry x="640" y="460" width="180" height="60" as="geometry" /></mxCell><mxCell id="e101" value="fundamenta" style="edgeStyle=orthogonalEdgeStyle;rounded=1;endArrow=block;endFill=1;html=1;fontSize=12;" edge="1" parent="1" source="A" target="B"><mxGeometry relative="1" as="geometry"><mxPoint x="0" y="0" as="offset" /></mxGeometry></mxCell><mxCell id="e102" value="contrasta con" style="edgeStyle=orthogonalEdgeStyle;rounded=1;endArrow=block;endFill=1;html=1;fontSize=12;" edge="1" parent="1" source="A" target="C"><mxGeometry relative="1" as="geometry"><mxPoint x="0" y="0" as="offset" /></mxGeometry></mxCell><mxCell id="e103" value="incrementa" style="edgeStyle=orthogonalEdgeStyle;rounded=1;endArrow=block;endFill=1;html=1;fontSize=12;" edge="1" parent="1" source="C" target="D"><mxGeometry relative="1" as="geometry"><mxPoint x="0" y="0" as="offset" /></mxGeometry></mxCell><mxCell id="e104" value="promueve" style="edgeStyle=orthogonalEdgeStyle;rounded=1;endArrow=block;endFill=1;html=1;fontSize=12;" edge="1" parent="1" source="A" target="E"><mxGeometry relative="1" as="geometry"><mxPoint x="0" y="0" as="offset" /></mxGeometry></mxCell><mxCell id="e105" value="define" style="edgeStyle=orthogonalEdgeStyle;rounded=1;endArrow=block;endFill=1;html=1;fontSize=12;" edge="1" parent="1" source="A" target="F"><mxGeometry relative="1" as="geometry"><mxPoint x="0" y="0" as="offset" /></mxGeometry></mxCell><mxCell id="e106" value="enfatiza" style="edgeStyle=orthogonalEdgeStyle;rounded=1;endArrow=block;endFill=1;html=1;fontSize=12;" edge="1" parent="1" source="A" target="H"><mxGeometry relative="1" as="geometry"><mxPoint x="0" y="0" as="offset" /></mxGeometry></mxCell><mxCell id="e107" value="requiere" style="edgeStyle=orthogonalEdgeStyle;rounded=1;endArrow=block;endFill=1;html=1;fontSize=12;" edge="1" parent="1" source="A" target="G"><mxGeometry relative="1" as="geometry"><mxPoint x="0" y="0" as="offset" /></mxGeometry></mxCell><mxCell id="e108" value="se aplica con" style="edgeStyle=orthogonalEdgeStyle;rounded=1;endArrow=block;endFill=1;html=1;fontSize=12;" edge="1" parent="1" source="A" target="I"><mxGeometry relative="1" as="geometry"><mxPoint x="0" y="0" as="offset" /></mxGeometry></mxCell><mxCell id="e109" value="refuerza" style="edgeStyle=orthogonalEdgeStyle;rounded=1;endArrow=block;endFill=1;html=1;fontSize=12;" edge="1" parent="1" source="I" target="G"><mxGeometry relative="1" as="geometry"><mxPoint x="0" y="0" as="offset" /></mxGeometry></mxCell><mxCell id="e110" value="cierra en" style="edgeStyle=orthogonalEdgeStyle;rounded=1;endArrow=block;endFill=1;html=1;fontSize=12;" edge="1" parent="1" source="A" target="J"><mxGeometry relative="1" as="geometry"><mxPoint x="0" y="0" as="offset" /></mxGeometry></mxCell></root></mxGraphModel></diagram></mxfile>